<mxfile host="app.diagrams.net" modified="2023-06-24T21:29:24.268Z" agent="Mozilla/5.0 (Windows NT 10.0; Win64; x64) AppleWebKit/537.36 (KHTML, like Gecko) Chrome/114.0.0.0 Safari/537.36" etag="NoBA_ZXPysqUEFyDBXFG" version="21.3.2" type="device">
  <diagram name="Page-1" id="gCoo2C5nFrYfR__Q0fuE">
    <mxGraphModel dx="1434" dy="802" grid="1" gridSize="10" guides="1" tooltips="1" connect="1" arrows="1" fold="1" page="1" pageScale="1" pageWidth="827" pageHeight="1169" math="0" shadow="0">
      <root>
        <mxCell id="0" />
        <mxCell id="1" parent="0" />
        <mxCell id="2YAhIWGiTw2wvqgSQafy-1" value="" style="strokeWidth=1;shadow=0;dashed=0;align=center;html=1;shape=mxgraph.mockup.containers.browserWindow;rSize=0;strokeColor=#666666;strokeColor2=#008cff;strokeColor3=#c4c4c4;mainText=,;recursiveResize=0;" vertex="1" parent="1">
          <mxGeometry width="830" height="2010" as="geometry" />
        </mxCell>
        <mxCell id="2YAhIWGiTw2wvqgSQafy-2" value="Page 1" style="strokeWidth=1;shadow=0;dashed=0;align=center;html=1;shape=mxgraph.mockup.containers.anchor;fontSize=17;fontColor=#666666;align=left;whiteSpace=wrap;" vertex="1" parent="2YAhIWGiTw2wvqgSQafy-1">
          <mxGeometry x="60" y="12" width="110" height="26" as="geometry" />
        </mxCell>
        <mxCell id="2YAhIWGiTw2wvqgSQafy-3" value="https://www.wedding-site.io" style="strokeWidth=1;shadow=0;dashed=0;align=center;html=1;shape=mxgraph.mockup.containers.anchor;rSize=0;fontSize=17;fontColor=#666666;align=left;" vertex="1" parent="2YAhIWGiTw2wvqgSQafy-1">
          <mxGeometry x="130" y="60" width="250" height="26" as="geometry" />
        </mxCell>
        <mxCell id="2YAhIWGiTw2wvqgSQafy-4" value="" style="html=1;shadow=0;dashed=0;fillColor=#F8F9FA;strokeColor=none;fontSize=16;fontColor=#7C7C7D;align=right;spacing=15;" vertex="1" parent="2YAhIWGiTw2wvqgSQafy-1">
          <mxGeometry y="110" width="790" height="60" as="geometry" />
        </mxCell>
        <mxCell id="2YAhIWGiTw2wvqgSQafy-5" value="Wedding Photography" style="strokeColor=none;html=1;whiteSpace=wrap;fillColor=none;fontColor=#181819;align=left;fontSize=16;spacing=10;" vertex="1" parent="2YAhIWGiTw2wvqgSQafy-4">
          <mxGeometry width="130" height="40" relative="1" as="geometry">
            <mxPoint x="339" y="10" as="offset" />
          </mxGeometry>
        </mxCell>
        <mxCell id="2YAhIWGiTw2wvqgSQafy-6" value="Home" style="strokeColor=none;html=1;whiteSpace=wrap;fillColor=none;fontColor=#181819;align=left;fontSize=14;spacing=10;" vertex="1" parent="2YAhIWGiTw2wvqgSQafy-4">
          <mxGeometry width="60" height="40" relative="1" as="geometry">
            <mxPoint x="41" y="10" as="offset" />
          </mxGeometry>
        </mxCell>
        <mxCell id="2YAhIWGiTw2wvqgSQafy-20" value="Photo Shooting" style="strokeColor=none;html=1;whiteSpace=wrap;fillColor=none;fontColor=#181819;align=left;fontSize=14;spacing=10;" vertex="1" parent="2YAhIWGiTw2wvqgSQafy-4">
          <mxGeometry width="120" height="40" relative="1" as="geometry">
            <mxPoint x="111" y="10" as="offset" />
          </mxGeometry>
        </mxCell>
        <mxCell id="2YAhIWGiTw2wvqgSQafy-21" value="About" style="strokeColor=none;html=1;whiteSpace=wrap;fillColor=none;fontColor=#181819;align=left;fontSize=14;spacing=10;" vertex="1" parent="2YAhIWGiTw2wvqgSQafy-4">
          <mxGeometry x="570" y="10" width="60" height="40" as="geometry" />
        </mxCell>
        <mxCell id="2YAhIWGiTw2wvqgSQafy-22" value="Contact" style="strokeColor=none;html=1;whiteSpace=wrap;fillColor=none;fontColor=#181819;align=left;fontSize=14;spacing=10;" vertex="1" parent="2YAhIWGiTw2wvqgSQafy-4">
          <mxGeometry x="661" y="10" width="60" height="40" as="geometry" />
        </mxCell>
        <mxCell id="2YAhIWGiTw2wvqgSQafy-23" value="Moments to remember" style="html=1;shadow=0;dashed=0;strokeColor=none;strokeWidth=1;fillColor=#777777;fontColor=#555555;whiteSpace=wrap;align=center;verticalAlign=middle;fontStyle=0;fontSize=40;" vertex="1" parent="2YAhIWGiTw2wvqgSQafy-1">
          <mxGeometry y="170" width="830" height="320" as="geometry" />
        </mxCell>
        <mxCell id="2YAhIWGiTw2wvqgSQafy-24" value="" style="html=1;verticalLabelPosition=bottom;labelBackgroundColor=#ffffff;verticalAlign=top;shadow=0;dashed=0;strokeWidth=4;shape=mxgraph.ios7.misc.more;strokeColor=#a0a0a0;" vertex="1" parent="2YAhIWGiTw2wvqgSQafy-23">
          <mxGeometry x="1" y="0.5" width="7" height="14" relative="1" as="geometry">
            <mxPoint x="-50" y="-7" as="offset" />
          </mxGeometry>
        </mxCell>
        <mxCell id="2YAhIWGiTw2wvqgSQafy-25" value="" style="flipH=1;html=1;verticalLabelPosition=bottom;labelBackgroundColor=#ffffff;verticalAlign=top;shadow=0;dashed=0;strokeWidth=4;shape=mxgraph.ios7.misc.more;strokeColor=#a0a0a0;" vertex="1" parent="2YAhIWGiTw2wvqgSQafy-23">
          <mxGeometry y="0.5" width="7" height="14" relative="1" as="geometry">
            <mxPoint x="43" y="-7" as="offset" />
          </mxGeometry>
        </mxCell>
        <mxCell id="2YAhIWGiTw2wvqgSQafy-26" value="" style="html=1;shadow=0;strokeColor=none;fillColor=#ffffff;" vertex="1" parent="2YAhIWGiTw2wvqgSQafy-23">
          <mxGeometry x="0.5" y="1" width="30" height="4" relative="1" as="geometry">
            <mxPoint x="-50" y="-20" as="offset" />
          </mxGeometry>
        </mxCell>
        <mxCell id="2YAhIWGiTw2wvqgSQafy-27" value="" style="html=1;shadow=0;strokeColor=none;fillColor=#BBBBBB;" vertex="1" parent="2YAhIWGiTw2wvqgSQafy-23">
          <mxGeometry x="0.5" y="1" width="30" height="4" relative="1" as="geometry">
            <mxPoint x="-15" y="-20" as="offset" />
          </mxGeometry>
        </mxCell>
        <mxCell id="2YAhIWGiTw2wvqgSQafy-28" value="" style="html=1;shadow=0;strokeColor=none;fillColor=#BBBBBB;" vertex="1" parent="2YAhIWGiTw2wvqgSQafy-23">
          <mxGeometry x="0.5" y="1" width="30" height="4" relative="1" as="geometry">
            <mxPoint x="20" y="-20" as="offset" />
          </mxGeometry>
        </mxCell>
        <mxCell id="2YAhIWGiTw2wvqgSQafy-29" value="&lt;h1&gt;&lt;span style=&quot;background-color: initial; font-size: 12px; font-weight: normal;&quot;&gt;Lorem ipsum dolor sit amet, consectetur adipisicing elit, sed do eiusmod tempor incididunt ut labore et dolore magna aliqua.&amp;nbsp;&lt;/span&gt;&lt;br&gt;&lt;/h1&gt;Lorem ipsum dolor sit amet, consectetur adipisicing elit, sed do eiusmod tempor incididunt ut labore et dolore magna aliqua. Lorem ipsum dolor sit amet, consectetur adipisicing elit, sed do eiusmod tempor incididunt ut labore et dolore magna aliqua. Lorem ipsum dolor sit amet, consectetur adipisicing elit, sed do eiusmod tempor incididunt ut labore et dolore magna aliqua. Lorem ipsum dolor sit amet, consectetur adipisicing elit, sed do eiusmod tempor incididunt ut labore et dolore magna aliqua.&lt;br&gt;&lt;br&gt;Lorem ipsum dolor sit amet, consectetur adipisicing elit, sed do eiusmod tempor incididunt ut labore et dolore magna aliqua.Lorem ipsum dolor sit amet, consectetur adipisicing elit, sed do eiusmod tempor incididunt ut labore et dolore magna aliqua." style="text;html=1;strokeColor=none;fillColor=none;spacing=5;spacingTop=-20;whiteSpace=wrap;overflow=hidden;rounded=0;" vertex="1" parent="2YAhIWGiTw2wvqgSQafy-1">
          <mxGeometry x="49" y="520" width="730" height="170" as="geometry" />
        </mxCell>
        <mxCell id="2YAhIWGiTw2wvqgSQafy-30" value="" style="shape=image;html=1;verticalAlign=top;verticalLabelPosition=bottom;labelBackgroundColor=#ffffff;imageAspect=0;aspect=fixed;image=https://cdn0.iconfinder.com/data/icons/PRACTIKA/128/testimonial.png" vertex="1" parent="2YAhIWGiTw2wvqgSQafy-1">
          <mxGeometry x="344" y="700" width="140" height="140" as="geometry" />
        </mxCell>
        <mxCell id="2YAhIWGiTw2wvqgSQafy-31" value="&lt;h1&gt;Wedding Photographer&lt;/h1&gt;&lt;p&gt;Lorem ipsum dolor sit amet, consectetur adipisicing elit, sed do eiusmod tempor incididunt ut labore et dolore magna aliqua.&lt;/p&gt;" style="text;html=1;strokeColor=none;fillColor=none;spacing=5;spacingTop=-20;whiteSpace=wrap;overflow=hidden;rounded=0;" vertex="1" parent="2YAhIWGiTw2wvqgSQafy-1">
          <mxGeometry x="49" y="880" width="341" height="120" as="geometry" />
        </mxCell>
        <mxCell id="2YAhIWGiTw2wvqgSQafy-32" value="Contact me" style="rounded=1;whiteSpace=wrap;html=1;arcSize=50;strokeColor=none;strokeWidth=1;fillColor=#6C767D;fontColor=#FFFFFF;whiteSpace=wrap;align=left;verticalAlign=middle;spacingLeft=0;fontStyle=1;fontSize=14;spacing=10;" vertex="1" parent="2YAhIWGiTw2wvqgSQafy-1">
          <mxGeometry x="49" y="1000" width="101" height="30" as="geometry" />
        </mxCell>
        <mxCell id="2YAhIWGiTw2wvqgSQafy-33" value="" style="shape=image;html=1;verticalLabelPosition=bottom;verticalAlign=top;imageAspect=1;aspect=fixed;image=img/clipart/Gear_128x128.png" vertex="1" parent="2YAhIWGiTw2wvqgSQafy-1">
          <mxGeometry x="550" y="880" width="136.39" height="160" as="geometry" />
        </mxCell>
        <mxCell id="2YAhIWGiTw2wvqgSQafy-34" value="" style="shape=image;html=1;verticalLabelPosition=bottom;verticalAlign=top;imageAspect=1;aspect=fixed;image=img/clipart/Gear_128x128.png" vertex="1" parent="2YAhIWGiTw2wvqgSQafy-1">
          <mxGeometry x="345" y="1120" width="136.39" height="160" as="geometry" />
        </mxCell>
        <mxCell id="2YAhIWGiTw2wvqgSQafy-35" value="" style="shape=image;html=1;verticalLabelPosition=bottom;verticalAlign=top;imageAspect=1;aspect=fixed;image=img/clipart/Gear_128x128.png" vertex="1" parent="2YAhIWGiTw2wvqgSQafy-1">
          <mxGeometry x="130" y="1120" width="136.39" height="160" as="geometry" />
        </mxCell>
        <mxCell id="2YAhIWGiTw2wvqgSQafy-36" value="" style="shape=image;html=1;verticalLabelPosition=bottom;verticalAlign=top;imageAspect=1;aspect=fixed;image=img/clipart/Gear_128x128.png" vertex="1" parent="2YAhIWGiTw2wvqgSQafy-1">
          <mxGeometry x="560" y="1120" width="136.39" height="160" as="geometry" />
        </mxCell>
        <mxCell id="2YAhIWGiTw2wvqgSQafy-37" value="Contact" style="text;strokeColor=none;fillColor=none;html=1;fontSize=24;fontStyle=1;verticalAlign=middle;align=center;" vertex="1" parent="2YAhIWGiTw2wvqgSQafy-1">
          <mxGeometry x="363.19" y="1340" width="100" height="40" as="geometry" />
        </mxCell>
        <mxCell id="2YAhIWGiTw2wvqgSQafy-38" value="" style="shape=image;html=1;verticalLabelPosition=bottom;verticalAlign=top;imageAspect=1;aspect=fixed;image=img/clipart/Gear_128x128.png" vertex="1" parent="2YAhIWGiTw2wvqgSQafy-1">
          <mxGeometry x="130" y="1420" width="136.39" height="160" as="geometry" />
        </mxCell>
        <mxCell id="2YAhIWGiTw2wvqgSQafy-55" value="Email address" style="fillColor=none;strokeColor=none;align=left;fontSize=14;" vertex="1" parent="2YAhIWGiTw2wvqgSQafy-1">
          <mxGeometry x="400" y="1490" width="260" height="40" as="geometry" />
        </mxCell>
        <mxCell id="2YAhIWGiTw2wvqgSQafy-56" value="name@example.com" style="html=1;shadow=0;dashed=0;shape=mxgraph.bootstrap.rrect;rSize=5;fillColor=none;strokeColor=#999999;align=left;spacing=15;fontSize=14;fontColor=#6C767D;" vertex="1" parent="2YAhIWGiTw2wvqgSQafy-1">
          <mxGeometry width="370" height="30" relative="1" as="geometry">
            <mxPoint x="400" y="1530" as="offset" />
          </mxGeometry>
        </mxCell>
        <mxCell id="2YAhIWGiTw2wvqgSQafy-57" value="Location" style="fillColor=none;strokeColor=none;align=left;fontSize=14;" vertex="1" parent="2YAhIWGiTw2wvqgSQafy-1">
          <mxGeometry width="260" height="40" relative="1" as="geometry">
            <mxPoint x="400" y="1570" as="offset" />
          </mxGeometry>
        </mxCell>
        <mxCell id="2YAhIWGiTw2wvqgSQafy-58" value="1" style="html=1;shadow=0;dashed=0;shape=mxgraph.bootstrap.rrect;rSize=5;fillColor=none;strokeColor=#999999;align=left;spacing=15;fontSize=14;fontColor=#6C767D;" vertex="1" parent="2YAhIWGiTw2wvqgSQafy-1">
          <mxGeometry width="370" height="30" relative="1" as="geometry">
            <mxPoint x="400" y="1610" as="offset" />
          </mxGeometry>
        </mxCell>
        <mxCell id="2YAhIWGiTw2wvqgSQafy-69" value="Text" style="fillColor=none;strokeColor=none;align=left;fontSize=14;" vertex="1" parent="2YAhIWGiTw2wvqgSQafy-1">
          <mxGeometry width="260" height="40" relative="1" as="geometry">
            <mxPoint x="400" y="1650" as="offset" />
          </mxGeometry>
        </mxCell>
        <mxCell id="2YAhIWGiTw2wvqgSQafy-70" value="" style="html=1;shadow=0;dashed=0;shape=mxgraph.bootstrap.rrect;rSize=5;fillColor=none;strokeColor=#999999;align=left;spacing=15;fontSize=14;fontColor=#6C767D;" vertex="1" parent="2YAhIWGiTw2wvqgSQafy-1">
          <mxGeometry width="370" height="90" relative="1" as="geometry">
            <mxPoint x="400" y="1690" as="offset" />
          </mxGeometry>
        </mxCell>
        <mxCell id="2YAhIWGiTw2wvqgSQafy-71" value="Name" style="fillColor=none;strokeColor=none;align=left;fontSize=14;" vertex="1" parent="2YAhIWGiTw2wvqgSQafy-1">
          <mxGeometry x="400" y="1420" width="260" height="40" as="geometry" />
        </mxCell>
        <mxCell id="2YAhIWGiTw2wvqgSQafy-72" value="1" style="html=1;shadow=0;dashed=0;shape=mxgraph.bootstrap.rrect;rSize=5;fillColor=none;strokeColor=#999999;align=left;spacing=15;fontSize=14;fontColor=#6C767D;" vertex="1" parent="2YAhIWGiTw2wvqgSQafy-1">
          <mxGeometry x="400" y="1460" width="370" height="30" as="geometry" />
        </mxCell>
        <mxCell id="2YAhIWGiTw2wvqgSQafy-73" value="Submit" style="rounded=1;whiteSpace=wrap;html=1;arcSize=50;strokeColor=none;strokeWidth=1;fillColor=#6C767D;fontColor=#FFFFFF;whiteSpace=wrap;align=center;verticalAlign=middle;spacingLeft=0;fontStyle=1;fontSize=14;spacing=10;" vertex="1" parent="2YAhIWGiTw2wvqgSQafy-1">
          <mxGeometry x="400" y="1800" width="101" height="30" as="geometry" />
        </mxCell>
        <mxCell id="2YAhIWGiTw2wvqgSQafy-74" value="Copyright" style="text;html=1;strokeColor=none;fillColor=none;align=center;verticalAlign=middle;whiteSpace=wrap;rounded=0;" vertex="1" parent="2YAhIWGiTw2wvqgSQafy-1">
          <mxGeometry x="130" y="1939" width="60" height="30" as="geometry" />
        </mxCell>
        <mxCell id="2YAhIWGiTw2wvqgSQafy-75" value="" style="shape=image;html=1;verticalAlign=top;verticalLabelPosition=bottom;labelBackgroundColor=#ffffff;imageAspect=0;aspect=fixed;image=https://cdn4.iconfinder.com/data/icons/social-media-2146/512/25_social-128.png" vertex="1" parent="2YAhIWGiTw2wvqgSQafy-1">
          <mxGeometry x="571" y="1940" width="28" height="28" as="geometry" />
        </mxCell>
        <mxCell id="2YAhIWGiTw2wvqgSQafy-76" value="" style="shape=image;html=1;verticalAlign=top;verticalLabelPosition=bottom;labelBackgroundColor=#ffffff;imageAspect=0;aspect=fixed;image=https://cdn0.iconfinder.com/data/icons/global-top-brands/533/pinterest-128.png" vertex="1" parent="2YAhIWGiTw2wvqgSQafy-1">
          <mxGeometry x="620" y="1940" width="30" height="30" as="geometry" />
        </mxCell>
        <mxCell id="2YAhIWGiTw2wvqgSQafy-77" value="" style="dashed=0;outlineConnect=0;html=1;align=center;labelPosition=center;verticalLabelPosition=bottom;verticalAlign=top;shape=mxgraph.webicons.facebook;fillColor=#6294E4;gradientColor=#1A2665" vertex="1" parent="2YAhIWGiTw2wvqgSQafy-1">
          <mxGeometry x="673.99" y="1940" width="22.4" height="28" as="geometry" />
        </mxCell>
      </root>
    </mxGraphModel>
  </diagram>
</mxfile>
